<svg xmlns="http://www.w3.org/2000/svg" xmlns:svg="http://www.w3.org/2000/svg" id="svg2" width="437.276" height="192.706" version="1.1" viewBox="0 0 437.276 192.706"><metadata id="metadata8"/><path style="opacity:1;fill:#3775be;fill-opacity:1;fill-rule:nonzero;stroke:none;stroke-width:.17593244;stroke-miterlimit:4;stroke-dasharray:none;stroke-dashoffset:0;stroke-opacity:1" id="path4146" d="m 95.682367,186.05318 c -35.72446,-0.38273 -73.19434,-21.5781 -84.87035,-45.246 C -0.86399484,117.13928 -0.44218284,113.8507 0.33936816,96.96945 -1.8902928,50.46667 38.262887,24.383532 78.824567,10.048077 124.7366,-8.1133503 173.1346,-4.4166983 181.24963,44.196002 c 3.5885,21.496708 7.46124,56.442548 0.64874,80.106438 -13.11529,45.55731 -50.49153,62.13347 -86.216003,61.75074 z"/><path id="path4144" d="M 117.96125,122.1619 V 77.46533 l 35.27542,45.4003 v -45.4003 m -81.725483,0 v 30.69925 c 0,0 0.0942,14.70945 15.13408,14.70945 15.039883,0 15.134093,-14.70945 15.134093,-14.70945 V 77.46533 M 30.516987,100.60142 H 50.92515 M 30.165122,122.51377 V 77.46533 h 27.445461" style="fill:none;fill-rule:evenodd;stroke:#fff;stroke-width:6;stroke-linecap:round;stroke-linejoin:round;stroke-miterlimit:4;stroke-dasharray:none;stroke-opacity:1"/><path style="opacity:1;fill:#e7271a;fill-opacity:1;fill-rule:nonzero;stroke:none;stroke-width:.5;stroke-miterlimit:4;stroke-dasharray:none;stroke-dashoffset:0;stroke-opacity:1" id="path4149" d="m 169.06957,180.68288 c -3.02315,-6.07862 3.7034,-15.53349 8.72873,-17.90481 5.02533,-2.37132 10.07725,-3.75072 14.15848,-1.078 4.08123,2.67272 6.62345,7.2783 5.85606,12.69337 -0.76739,5.41507 -6.29892,12.24426 -12.57494,13.67049 -6.27602,1.42623 -13.14518,-1.30243 -16.16833,-7.38105 z"/><text style="font-style:normal;font-weight:400;line-height:0%;font-family:sans-serif;letter-spacing:0;word-spacing:0;fill:#252525;fill-opacity:1;stroke:none;stroke-width:1px;stroke-linecap:butt;stroke-linejoin:miter;stroke-opacity:1" id="text4155" x="244.29" y="95.26" transform="scale(0.93898212,1.064983)" xml:space="preserve"><tspan id="tspan4157" x="244.29" y="95.26" style="font-style:normal;font-variant:normal;font-weight:700;font-stretch:normal;font-size:37.5px;line-height:104.99999523%;font-family:Ubuntu;-inkscape-font-specification:Ubuntu;letter-spacing:-.86000001px;fill:#252525;fill-opacity:1">FRANCE</tspan><tspan id="tspan4159" x="244.29" y="134.635" style="font-style:normal;font-variant:normal;font-weight:400;font-stretch:normal;font-size:37.5px;line-height:104.99999523%;font-family:Ubuntu;-inkscape-font-specification:Ubuntu;letter-spacing:.69999999px;fill:#252525;fill-opacity:1">UNIVERSITÉ</tspan><tspan id="tspan4161" x="244.29" y="174.01" style="font-style:normal;font-variant:normal;font-weight:400;font-stretch:normal;font-size:37.5px;line-height:104.99999523%;font-family:Ubuntu;-inkscape-font-specification:Ubuntu;letter-spacing:.69999999px;fill:#252525;fill-opacity:1">NUMÉRIQUE</tspan></text></svg>